<svg xmlns="http://www.w3.org/2000/svg" viewBox="0 0 200 200" role="img" aria-label="Mölkky pins">
  <rect width="200" height="200" fill="#ffffff"/>
  <g transform="translate(100.00 32.37) scale(1.0651)">
    <g>
      <rect x="-57" y="0" width="34" height="48" fill="#ffffff"/>
      <ellipse cx="-40" cy="0" rx="17" ry="20" fill="#ffffff"/>
      <ellipse cx="-40" cy="48" rx="17" ry="9" fill="#ffffff"/>
      <g stroke="#27514f" stroke-width="2" fill="none" stroke-linecap="round">
        <ellipse cx="-40" cy="0" rx="17" ry="20"/>
        <line x1="-57" y1="0" x2="-57" y2="48"/>
        <line x1="-23" y1="0" x2="-23" y2="48"/>
        <path d="M -57 48 A 17 9 0 0 0 -23 48"/>
      </g>
      <text x="-40" y="6" text-anchor="middle"
            font-family="Helvetica Neue, Helvetica, Arial" font-weight="bold"
            font-size="19.5" fill="#27514f">7</text>
    </g>
    <g>
      <rect x="-17" y="0" width="34" height="48" fill="#ffffff"/>
      <ellipse cx="0" cy="0" rx="17" ry="20" fill="#ffffff"/>
      <ellipse cx="0" cy="48" rx="17" ry="9" fill="#ffffff"/>
      <g stroke="#27514f" stroke-width="2" fill="none" stroke-linecap="round">
        <ellipse cx="0" cy="0" rx="17" ry="20"/>
        <line x1="-17" y1="0" x2="-17" y2="48"/>
        <line x1="17" y1="0" x2="17" y2="48"/>
        <path d="M -17 48 A 17 9 0 0 0 17 48"/>
      </g>
      <text x="0" y="6" text-anchor="middle"
            font-family="Helvetica Neue, Helvetica, Arial" font-weight="bold"
            font-size="19.5" fill="#27514f">9</text>
    </g>
    <g>
      <rect x="23" y="0" width="34" height="48" fill="#ffffff"/>
      <ellipse cx="40" cy="0" rx="17" ry="20" fill="#ffffff"/>
      <ellipse cx="40" cy="48" rx="17" ry="9" fill="#ffffff"/>
      <g stroke="#27514f" stroke-width="2" fill="none" stroke-linecap="round">
        <ellipse cx="40" cy="0" rx="17" ry="20"/>
        <line x1="23" y1="0" x2="23" y2="48"/>
        <line x1="57" y1="0" x2="57" y2="48"/>
        <path d="M 23 48 A 17 9 0 0 0 57 48"/>
      </g>
      <text x="40" y="6" text-anchor="middle"
            font-family="Helvetica Neue, Helvetica, Arial" font-weight="bold"
            font-size="19.5" fill="#27514f">8</text>
    </g>
    <g>
      <rect x="-77" y="30" width="34" height="48" fill="#ffffff"/>
      <ellipse cx="-60" cy="30" rx="17" ry="20" fill="#ffffff"/>
      <ellipse cx="-60" cy="78" rx="17" ry="9" fill="#ffffff"/>
      <g stroke="#27514f" stroke-width="2" fill="none" stroke-linecap="round">
        <ellipse cx="-60" cy="30" rx="17" ry="20"/>
        <line x1="-77" y1="30" x2="-77" y2="78"/>
        <line x1="-43" y1="30" x2="-43" y2="78"/>
        <path d="M -77 78 A 17 9 0 0 0 -43 78"/>
      </g>
      <text x="-60" y="36" text-anchor="middle"
            font-family="Helvetica Neue, Helvetica, Arial" font-weight="bold"
            font-size="19.5" fill="#27514f">5</text>
    </g>
    <g>
      <rect x="-37" y="30" width="34" height="48" fill="#ffffff"/>
      <ellipse cx="-20" cy="30" rx="17" ry="20" fill="#ffffff"/>
      <ellipse cx="-20" cy="78" rx="17" ry="9" fill="#ffffff"/>
      <g stroke="#27514f" stroke-width="2" fill="none" stroke-linecap="round">
        <ellipse cx="-20" cy="30" rx="17" ry="20"/>
        <line x1="-37" y1="30" x2="-37" y2="78"/>
        <line x1="-3" y1="30" x2="-3" y2="78"/>
        <path d="M -37 78 A 17 9 0 0 0 -3 78"/>
      </g>
      <text x="-20" y="36" text-anchor="middle"
            font-family="Helvetica Neue, Helvetica, Arial" font-weight="bold"
            font-size="19.5" fill="#27514f">11</text>
    </g>
    <g>
      <rect x="3" y="30" width="34" height="48" fill="#ffffff"/>
      <ellipse cx="20" cy="30" rx="17" ry="20" fill="#ffffff"/>
      <ellipse cx="20" cy="78" rx="17" ry="9" fill="#ffffff"/>
      <g stroke="#27514f" stroke-width="2" fill="none" stroke-linecap="round">
        <ellipse cx="20" cy="30" rx="17" ry="20"/>
        <line x1="3" y1="30" x2="3" y2="78"/>
        <line x1="37" y1="30" x2="37" y2="78"/>
        <path d="M 3 78 A 17 9 0 0 0 37 78"/>
      </g>
      <text x="20" y="36" text-anchor="middle"
            font-family="Helvetica Neue, Helvetica, Arial" font-weight="bold"
            font-size="19.5" fill="#27514f">12</text>
    </g>
    <g>
      <rect x="43" y="30" width="34" height="48" fill="#ffffff"/>
      <ellipse cx="60" cy="30" rx="17" ry="20" fill="#ffffff"/>
      <ellipse cx="60" cy="78" rx="17" ry="9" fill="#ffffff"/>
      <g stroke="#27514f" stroke-width="2" fill="none" stroke-linecap="round">
        <ellipse cx="60" cy="30" rx="17" ry="20"/>
        <line x1="43" y1="30" x2="43" y2="78"/>
        <line x1="77" y1="30" x2="77" y2="78"/>
        <path d="M 43 78 A 17 9 0 0 0 77 78"/>
      </g>
      <text x="60" y="36" text-anchor="middle"
            font-family="Helvetica Neue, Helvetica, Arial" font-weight="bold"
            font-size="19.5" fill="#27514f">6</text>
    </g>
    <g>
      <rect x="-57" y="60" width="34" height="48" fill="#ffffff"/>
      <ellipse cx="-40" cy="60" rx="17" ry="20" fill="#ffffff"/>
      <ellipse cx="-40" cy="108" rx="17" ry="9" fill="#ffffff"/>
      <g stroke="#27514f" stroke-width="2" fill="none" stroke-linecap="round">
        <ellipse cx="-40" cy="60" rx="17" ry="20"/>
        <line x1="-57" y1="60" x2="-57" y2="108"/>
        <line x1="-23" y1="60" x2="-23" y2="108"/>
        <path d="M -57 108 A 17 9 0 0 0 -23 108"/>
      </g>
      <text x="-40" y="66" text-anchor="middle"
            font-family="Helvetica Neue, Helvetica, Arial" font-weight="bold"
            font-size="19.5" fill="#27514f">3</text>
    </g>
    <g>
      <rect x="-17" y="60" width="34" height="48" fill="#ffffff"/>
      <ellipse cx="0" cy="60" rx="17" ry="20" fill="#ffffff"/>
      <ellipse cx="0" cy="108" rx="17" ry="9" fill="#ffffff"/>
      <g stroke="#27514f" stroke-width="2" fill="none" stroke-linecap="round">
        <ellipse cx="0" cy="60" rx="17" ry="20"/>
        <line x1="-17" y1="60" x2="-17" y2="108"/>
        <line x1="17" y1="60" x2="17" y2="108"/>
        <path d="M -17 108 A 17 9 0 0 0 17 108"/>
      </g>
      <text x="0" y="66" text-anchor="middle"
            font-family="Helvetica Neue, Helvetica, Arial" font-weight="bold"
            font-size="19.5" fill="#27514f">10</text>
    </g>
    <g>
      <rect x="23" y="60" width="34" height="48" fill="#ffffff"/>
      <ellipse cx="40" cy="60" rx="17" ry="20" fill="#ffffff"/>
      <ellipse cx="40" cy="108" rx="17" ry="9" fill="#ffffff"/>
      <g stroke="#27514f" stroke-width="2" fill="none" stroke-linecap="round">
        <ellipse cx="40" cy="60" rx="17" ry="20"/>
        <line x1="23" y1="60" x2="23" y2="108"/>
        <line x1="57" y1="60" x2="57" y2="108"/>
        <path d="M 23 108 A 17 9 0 0 0 57 108"/>
      </g>
      <text x="40" y="66" text-anchor="middle"
            font-family="Helvetica Neue, Helvetica, Arial" font-weight="bold"
            font-size="19.5" fill="#27514f">4</text>
    </g>
    <g>
      <rect x="-37" y="90" width="34" height="48" fill="#ffffff"/>
      <ellipse cx="-20" cy="90" rx="17" ry="20" fill="#ffffff"/>
      <ellipse cx="-20" cy="138" rx="17" ry="9" fill="#ffffff"/>
      <g stroke="#27514f" stroke-width="2" fill="none" stroke-linecap="round">
        <ellipse cx="-20" cy="90" rx="17" ry="20"/>
        <line x1="-37" y1="90" x2="-37" y2="138"/>
        <line x1="-3" y1="90" x2="-3" y2="138"/>
        <path d="M -37 138 A 17 9 0 0 0 -3 138"/>
      </g>
      <text x="-20" y="96" text-anchor="middle"
            font-family="Helvetica Neue, Helvetica, Arial" font-weight="bold"
            font-size="19.5" fill="#27514f">1</text>
    </g>
    <g>
      <rect x="3" y="90" width="34" height="48" fill="#ffffff"/>
      <ellipse cx="20" cy="90" rx="17" ry="20" fill="#ffffff"/>
      <ellipse cx="20" cy="138" rx="17" ry="9" fill="#ffffff"/>
      <g stroke="#27514f" stroke-width="2" fill="none" stroke-linecap="round">
        <ellipse cx="20" cy="90" rx="17" ry="20"/>
        <line x1="3" y1="90" x2="3" y2="138"/>
        <line x1="37" y1="90" x2="37" y2="138"/>
        <path d="M 3 138 A 17 9 0 0 0 37 138"/>
      </g>
      <text x="20" y="96" text-anchor="middle"
            font-family="Helvetica Neue, Helvetica, Arial" font-weight="bold"
            font-size="19.5" fill="#27514f">2</text>
    </g>
  </g>
</svg>
